# xmcd CD database file generated by OrangeCD 6.3
#
# Track frame offsets:
#	150
#	15299
#	30971
#	46737
#	62632
#	82087
#	95866
#	111410
#	126841
#	140696
#	158110
#
# Disc length: 2327 seconds
#
# Revision: 1
# Processed by: cddbd v1.5.2PL0 Copyright (c) Steve Scherf et al.
# Submitted via: OrangeCD 6.3
#
DISCID=8c09150b
DTITLE=Bucky Covington - Bucky Covington
DYEAR=2007
DGENRE=Country
TTITLE0=American Friday Night
TTITLE1=A Different World
TTITLE2=I'll Walk
TTITLE3=Back When We Were Gods
TTITLE4=Ain't No Thing
TTITLE5=I'm Good
TTITLE6=Empty Handed
TTITLE7=Hometown
TTITLE8=It's Good To Be Us
TTITLE9=Carolina Blue
TTITLE10=The Bible and the Belt
EXTD=Produced by Mark A. Miller and Dale Oliver
EXTT0=
EXTT1=
EXTT2=
EXTT3=
EXTT4=
EXTT5=
EXTT6=
EXTT7=
EXTT8=
EXTT9=
EXTT10=
PLAYORDER=
